<svg width="21" height="21" viewBox="0 0 21 21" fill="none" xmlns="http://www.w3.org/2000/svg">
<path fill-rule="evenodd" clip-rule="evenodd" d="M0.299683 0.95752H3.80233H4.62213L4.78291 1.7614L5.24024 4.04809H18.8431H20.0235L19.8295 5.21249L18.7993 11.3936L18.66 12.2292H17.8129H6.87647L7.30062 14.35H17.8129V16.35H6.48081H5.66101L5.50023 15.5461L3.43985 5.2442L4.42044 5.04809L3.43985 5.2442L2.98252 2.95752H0.299683V0.95752ZM5.64024 6.04809L6.47647 10.2292H16.9658L17.6626 6.04809H5.64024ZM9.1758 18.8389C9.1758 19.7593 8.4316 20.5035 7.51119 20.5035C6.59075 20.5035 5.84656 19.7593 5.84656 18.8389C5.84656 17.9185 6.59075 17.1938 7.51119 17.1938C8.4316 17.1938 9.1758 17.9185 9.1758 18.8389ZM15.7534 20.5035C16.6738 20.5035 17.418 19.7593 17.418 18.8389C17.418 17.9185 16.6738 17.1938 15.7534 17.1938C14.8329 17.1938 14.0887 17.9185 14.0887 18.8389C14.0887 19.7593 14.8329 20.5035 15.7534 20.5035Z" fill="#007BFB"/>
</svg>
